<svg width="64" height="64" viewBox="0 0 64 64" fill="none" xmlns="http://www.w3.org/2000/svg">
<rect width="58" height="58" rx="29" fill="#3C404C"/>
<path d="M14.7969 30.2344C14.3177 30.224 13.9219 30.125 13.6094 29.9375C13.2969 29.7396 13.0625 29.4896 12.9062 29.1875C12.7604 28.875 12.7031 28.5469 12.7344 28.2031C12.7656 27.849 12.8854 27.5208 13.0938 27.2188C13.3021 26.9167 13.6094 26.6719 14.0156 26.4844L38.9844 14.9062C39.5365 14.6562 40.0417 14.5521 40.5 14.5938C40.9688 14.625 41.3542 14.7812 41.6562 15.0625C41.9688 15.3333 42.1562 15.6927 42.2188 16.1406C42.2812 16.5885 42.1823 17.099 41.9219 17.6719L30.375 42.5C30.1667 42.9479 29.901 43.2865 29.5781 43.5156C29.2656 43.7552 28.9323 43.8906 28.5781 43.9219C28.224 43.9635 27.8906 43.9062 27.5781 43.75C27.2656 43.6042 27.0104 43.375 26.8125 43.0625C26.625 42.75 26.5312 42.3594 26.5312 41.8906L26.5 30.5938C26.5 30.3854 26.3958 30.2812 26.1875 30.2812L14.7969 30.2344Z" fill="#E2E7EF"/>
<path d="M52.709 62.9102C51.3353 62.9102 50.0462 62.6497 48.8418 62.1289C47.6374 61.6146 46.5794 60.9017 45.668 59.9902C44.7565 59.0723 44.0404 58.0143 43.5195 56.8164C43.0052 55.612 42.748 54.3229 42.748 52.9492C42.748 51.5755 43.0052 50.2865 43.5195 49.082C44.0404 47.8776 44.7565 46.8197 45.668 45.9082C46.5794 44.9967 47.6374 44.2839 48.8418 43.7695C50.0462 43.2487 51.3353 42.9883 52.709 42.9883C54.0827 42.9883 55.3717 43.2487 56.5762 43.7695C57.7806 44.2839 58.8385 44.9967 59.75 45.9082C60.6615 46.8197 61.3743 47.8776 61.8887 49.082C62.4095 50.2865 62.6699 51.5755 62.6699 52.9492C62.6699 54.3229 62.4095 55.612 61.8887 56.8164C61.3743 58.0143 60.6615 59.0723 59.75 59.9902C58.8385 60.9017 57.7806 61.6146 56.5762 62.1289C55.3717 62.6497 54.0827 62.9102 52.709 62.9102ZM51.6152 57.7148C51.7845 57.7148 51.9375 57.6758 52.0742 57.5977C52.2109 57.5195 52.3314 57.4023 52.4355 57.2461L57.0254 50.0098C57.084 49.9121 57.1393 49.8079 57.1914 49.6973C57.2435 49.5866 57.2695 49.4759 57.2695 49.3652C57.2695 49.1374 57.1849 48.9583 57.0156 48.8281C56.8464 48.6914 56.6576 48.623 56.4492 48.623C56.1628 48.623 55.9284 48.7728 55.7461 49.0723L51.5762 55.7715L49.5938 53.2129C49.4701 53.0501 49.3496 52.9395 49.2324 52.8809C49.1217 52.8223 48.9948 52.793 48.8516 52.793C48.6302 52.793 48.4447 52.8743 48.2949 53.0371C48.1452 53.1934 48.0703 53.3822 48.0703 53.6035C48.0703 53.7142 48.0898 53.8249 48.1289 53.9355C48.1745 54.0397 48.2331 54.1406 48.3047 54.2383L50.7559 57.2461C50.8861 57.4154 51.0195 57.5358 51.1562 57.6074C51.293 57.679 51.446 57.7148 51.6152 57.7148Z" fill="#C8FF00"/>
</svg>
