<svg width="64" height="64" viewBox="0 0 64 64" fill="none" xmlns="http://www.w3.org/2000/svg">
<rect width="58" height="58" rx="29" fill="#3C404C"/>
<path d="M14.7969 30.2344C14.3177 30.224 13.9219 30.125 13.6094 29.9375C13.2969 29.7396 13.0625 29.4896 12.9062 29.1875C12.7604 28.875 12.7031 28.5469 12.7344 28.2031C12.7656 27.849 12.8854 27.5208 13.0938 27.2188C13.3021 26.9167 13.6094 26.6719 14.0156 26.4844L38.9844 14.9062C39.5365 14.6562 40.0417 14.5521 40.5 14.5938C40.9688 14.625 41.3542 14.7812 41.6562 15.0625C41.9688 15.3333 42.1562 15.6927 42.2188 16.1406C42.2812 16.5885 42.1823 17.099 41.9219 17.6719L30.375 42.5C30.1667 42.9479 29.901 43.2865 29.5781 43.5156C29.2656 43.7552 28.9323 43.8906 28.5781 43.9219C28.224 43.9635 27.8906 43.9062 27.5781 43.75C27.2656 43.6042 27.0104 43.375 26.8125 43.0625C26.625 42.75 26.5312 42.3594 26.5312 41.8906L26.5 30.5938C26.5 30.3854 26.3958 30.2812 26.1875 30.2812L14.7969 30.2344Z" fill="#E2E7EF"/>
<path d="M52.709 62.9102C51.3353 62.9102 50.0462 62.6497 48.8418 62.1289C47.6374 61.6146 46.5794 60.9017 45.668 59.9902C44.7565 59.0723 44.0404 58.0143 43.5195 56.8164C43.0052 55.612 42.748 54.3229 42.748 52.9492C42.748 51.5755 43.0052 50.2865 43.5195 49.082C44.0404 47.8776 44.7565 46.8197 45.668 45.9082C46.5794 44.9967 47.6374 44.2839 48.8418 43.7695C50.0462 43.2487 51.3353 42.9883 52.709 42.9883C54.0827 42.9883 55.3717 43.2487 56.5762 43.7695C57.7806 44.2839 58.8385 44.9967 59.75 45.9082C60.6615 46.8197 61.3743 47.8776 61.8887 49.082C62.4095 50.2865 62.6699 51.5755 62.6699 52.9492C62.6699 54.3229 62.4095 55.612 61.8887 56.8164C61.3743 58.0143 60.6615 59.0723 59.75 59.9902C58.8385 60.9017 57.7806 61.6146 56.5762 62.1289C55.3717 62.6497 54.0827 62.9102 52.709 62.9102ZM49.4277 57.0508C49.6621 57.0508 49.8607 56.9727 50.0234 56.8164L52.7188 54.1016L55.4238 56.8164C55.5736 56.9727 55.7656 57.0508 56 57.0508C56.2279 57.0508 56.4199 56.9727 56.5762 56.8164C56.7324 56.6536 56.8105 56.4616 56.8105 56.2402C56.8105 55.9993 56.7324 55.8073 56.5762 55.6641L53.8613 52.959L56.5859 50.2441C56.7422 50.0814 56.8203 49.8893 56.8203 49.668C56.8203 49.4466 56.7422 49.2578 56.5859 49.1016C56.4297 48.9453 56.2409 48.8672 56.0195 48.8672C55.8047 48.8672 55.6191 48.9453 55.4629 49.1016L52.7188 51.8262L49.9941 49.1113C49.8314 48.9616 49.6426 48.8867 49.4277 48.8867C49.2064 48.8867 49.0176 48.9648 48.8613 49.1211C48.7051 49.2708 48.627 49.4596 48.627 49.6875C48.627 49.9023 48.7051 50.0911 48.8613 50.2539L51.5762 52.959L48.8613 55.6738C48.7051 55.8301 48.627 56.0189 48.627 56.2402C48.627 56.4616 48.7051 56.6536 48.8613 56.8164C49.0176 56.9727 49.2064 57.0508 49.4277 57.0508Z" fill="#FF6767"/>
</svg>
